<mxfile host="app.diagrams.net" agent="Mozilla/5.0 (Windows NT 10.0; Win64; x64) AppleWebKit/537.36 (KHTML, like Gecko) Chrome/136.0.0.0 Safari/537.36 Edg/136.0.0.0" version="26.2.9">
  <diagram name="Page-1" id="G4jUNvh0E0kJYvAfDZpT">
    <mxGraphModel dx="830" dy="475" grid="1" gridSize="10" guides="1" tooltips="1" connect="1" arrows="1" fold="1" page="1" pageScale="1" pageWidth="850" pageHeight="1100" math="0" shadow="0">
      <root>
        <mxCell id="0" />
        <mxCell id="1" parent="0" />
        <mxCell id="WXTV3Mn7f3rtUq6KaUBK-5" value="SystemeAvion" style="swimlane;fontStyle=0;childLayout=stackLayout;horizontal=1;startSize=26;fillColor=#dae8fc;horizontalStack=0;resizeParent=1;resizeParentMax=0;resizeLast=0;collapsible=1;marginBottom=0;whiteSpace=wrap;html=1;strokeColor=#6c8ebf;" vertex="1" parent="1">
          <mxGeometry x="260" y="150" width="220" height="86" as="geometry" />
        </mxCell>
        <mxCell id="WXTV3Mn7f3rtUq6KaUBK-6" value="- instance : SystemeAvion" style="text;strokeColor=none;fillColor=none;align=left;verticalAlign=top;spacingLeft=4;spacingRight=4;overflow=hidden;rotatable=0;points=[[0,0.5],[1,0.5]];portConstraint=eastwest;whiteSpace=wrap;html=1;" vertex="1" parent="WXTV3Mn7f3rtUq6KaUBK-5">
          <mxGeometry y="26" width="220" height="26" as="geometry" />
        </mxCell>
        <mxCell id="WXTV3Mn7f3rtUq6KaUBK-9" value="" style="line;strokeWidth=1;fillColor=none;align=left;verticalAlign=middle;spacingTop=-1;spacingLeft=3;spacingRight=3;rotatable=0;labelPosition=right;points=[];portConstraint=eastwest;strokeColor=inherit;" vertex="1" parent="WXTV3Mn7f3rtUq6KaUBK-5">
          <mxGeometry y="52" width="220" height="8" as="geometry" />
        </mxCell>
        <mxCell id="WXTV3Mn7f3rtUq6KaUBK-10" value="+ getInstance() : SystemeAvion" style="text;strokeColor=none;fillColor=none;align=left;verticalAlign=top;spacingLeft=4;spacingRight=4;overflow=hidden;rotatable=0;points=[[0,0.5],[1,0.5]];portConstraint=eastwest;whiteSpace=wrap;html=1;" vertex="1" parent="WXTV3Mn7f3rtUq6KaUBK-5">
          <mxGeometry y="60" width="220" height="26" as="geometry" />
        </mxCell>
        <mxCell id="WXTV3Mn7f3rtUq6KaUBK-11" value="" style="endArrow=diamondThin;endFill=1;endSize=24;html=1;rounded=0;exitX=0;exitY=0.5;exitDx=0;exitDy=0;edgeStyle=orthogonalEdgeStyle;entryX=0;entryY=0.5;entryDx=0;entryDy=0;" edge="1" parent="WXTV3Mn7f3rtUq6KaUBK-5" source="WXTV3Mn7f3rtUq6KaUBK-10" target="WXTV3Mn7f3rtUq6KaUBK-6">
          <mxGeometry width="160" relative="1" as="geometry">
            <mxPoint x="-180" y="30" as="sourcePoint" />
            <mxPoint x="-70" y="40" as="targetPoint" />
            <Array as="points">
              <mxPoint x="-30" y="73" />
              <mxPoint x="-30" y="39" />
            </Array>
          </mxGeometry>
        </mxCell>
        <mxCell id="WXTV3Mn7f3rtUq6KaUBK-14" value="1" style="edgeLabel;html=1;align=center;verticalAlign=middle;resizable=0;points=[];" vertex="1" connectable="0" parent="WXTV3Mn7f3rtUq6KaUBK-11">
          <mxGeometry x="-0.617" y="-3" relative="1" as="geometry">
            <mxPoint x="-12" y="10" as="offset" />
          </mxGeometry>
        </mxCell>
        <mxCell id="WXTV3Mn7f3rtUq6KaUBK-15" value="1" style="edgeLabel;html=1;align=center;verticalAlign=middle;resizable=0;points=[];" vertex="1" connectable="0" parent="WXTV3Mn7f3rtUq6KaUBK-11">
          <mxGeometry x="0.5638" y="2" relative="1" as="geometry">
            <mxPoint x="-9" y="-7" as="offset" />
          </mxGeometry>
        </mxCell>
        <mxCell id="WXTV3Mn7f3rtUq6KaUBK-16" value="Vue" style="swimlane;fontStyle=0;childLayout=stackLayout;horizontal=1;startSize=26;fillColor=#d5e8d4;horizontalStack=0;resizeParent=1;resizeParentMax=0;resizeLast=0;collapsible=1;marginBottom=0;whiteSpace=wrap;html=1;strokeColor=#82b366;" vertex="1" parent="1">
          <mxGeometry x="300" width="140" height="86" as="geometry" />
        </mxCell>
        <mxCell id="WXTV3Mn7f3rtUq6KaUBK-17" value="- instance : Vue" style="text;strokeColor=none;fillColor=none;align=left;verticalAlign=top;spacingLeft=4;spacingRight=4;overflow=hidden;rotatable=0;points=[[0,0.5],[1,0.5]];portConstraint=eastwest;whiteSpace=wrap;html=1;" vertex="1" parent="WXTV3Mn7f3rtUq6KaUBK-16">
          <mxGeometry y="26" width="140" height="26" as="geometry" />
        </mxCell>
        <mxCell id="WXTV3Mn7f3rtUq6KaUBK-20" value="" style="line;strokeWidth=1;fillColor=none;align=left;verticalAlign=middle;spacingTop=-1;spacingLeft=3;spacingRight=3;rotatable=0;labelPosition=right;points=[];portConstraint=eastwest;strokeColor=inherit;" vertex="1" parent="WXTV3Mn7f3rtUq6KaUBK-16">
          <mxGeometry y="52" width="140" height="8" as="geometry" />
        </mxCell>
        <mxCell id="WXTV3Mn7f3rtUq6KaUBK-18" value="+ getInstance() : Vue" style="text;strokeColor=none;fillColor=none;align=left;verticalAlign=top;spacingLeft=4;spacingRight=4;overflow=hidden;rotatable=0;points=[[0,0.5],[1,0.5]];portConstraint=eastwest;whiteSpace=wrap;html=1;" vertex="1" parent="WXTV3Mn7f3rtUq6KaUBK-16">
          <mxGeometry y="60" width="140" height="26" as="geometry" />
        </mxCell>
        <mxCell id="WXTV3Mn7f3rtUq6KaUBK-21" value="" style="endArrow=open;endFill=1;endSize=12;html=1;rounded=0;entryX=0.25;entryY=0;entryDx=0;entryDy=0;exitX=0.117;exitY=1.09;exitDx=0;exitDy=0;exitPerimeter=0;" edge="1" parent="1" source="WXTV3Mn7f3rtUq6KaUBK-18" target="WXTV3Mn7f3rtUq6KaUBK-5">
          <mxGeometry width="160" relative="1" as="geometry">
            <mxPoint x="130" y="70" as="sourcePoint" />
            <mxPoint x="290" y="70" as="targetPoint" />
          </mxGeometry>
        </mxCell>
        <mxCell id="WXTV3Mn7f3rtUq6KaUBK-23" value="" style="endArrow=open;endFill=1;endSize=12;html=1;rounded=0;exitX=0.75;exitY=0;exitDx=0;exitDy=0;entryX=0.874;entryY=0.885;entryDx=0;entryDy=0;entryPerimeter=0;" edge="1" parent="1" source="WXTV3Mn7f3rtUq6KaUBK-5" target="WXTV3Mn7f3rtUq6KaUBK-18">
          <mxGeometry width="160" relative="1" as="geometry">
            <mxPoint x="400" y="270" as="sourcePoint" />
            <mxPoint x="420" y="90" as="targetPoint" />
          </mxGeometry>
        </mxCell>
        <mxCell id="WXTV3Mn7f3rtUq6KaUBK-24" value="" style="endArrow=diamondThin;endFill=1;endSize=24;html=1;rounded=0;exitX=0;exitY=0.5;exitDx=0;exitDy=0;edgeStyle=orthogonalEdgeStyle;entryX=0;entryY=0.5;entryDx=0;entryDy=0;" edge="1" parent="1">
          <mxGeometry width="160" relative="1" as="geometry">
            <mxPoint x="300" y="74" as="sourcePoint" />
            <mxPoint x="300" y="40" as="targetPoint" />
            <Array as="points">
              <mxPoint x="270" y="74" />
              <mxPoint x="270" y="40" />
            </Array>
          </mxGeometry>
        </mxCell>
        <mxCell id="WXTV3Mn7f3rtUq6KaUBK-25" value="1" style="edgeLabel;html=1;align=center;verticalAlign=middle;resizable=0;points=[];" vertex="1" connectable="0" parent="WXTV3Mn7f3rtUq6KaUBK-24">
          <mxGeometry x="-0.617" y="-3" relative="1" as="geometry">
            <mxPoint x="-12" y="10" as="offset" />
          </mxGeometry>
        </mxCell>
        <mxCell id="WXTV3Mn7f3rtUq6KaUBK-26" value="1" style="edgeLabel;html=1;align=center;verticalAlign=middle;resizable=0;points=[];" vertex="1" connectable="0" parent="WXTV3Mn7f3rtUq6KaUBK-24">
          <mxGeometry x="0.5638" y="2" relative="1" as="geometry">
            <mxPoint x="-9" y="-7" as="offset" />
          </mxGeometry>
        </mxCell>
        <mxCell id="WXTV3Mn7f3rtUq6KaUBK-27" value="Modele" style="swimlane;fontStyle=0;childLayout=stackLayout;horizontal=1;startSize=26;fillColor=#d5e8d4;horizontalStack=0;resizeParent=1;resizeParentMax=0;resizeLast=0;collapsible=1;marginBottom=0;whiteSpace=wrap;html=1;strokeColor=#82b366;" vertex="1" parent="1">
          <mxGeometry x="550" y="150" width="140" height="86" as="geometry" />
        </mxCell>
        <mxCell id="WXTV3Mn7f3rtUq6KaUBK-28" value="- instance : Modele" style="text;strokeColor=none;fillColor=none;align=left;verticalAlign=top;spacingLeft=4;spacingRight=4;overflow=hidden;rotatable=0;points=[[0,0.5],[1,0.5]];portConstraint=eastwest;whiteSpace=wrap;html=1;" vertex="1" parent="WXTV3Mn7f3rtUq6KaUBK-27">
          <mxGeometry y="26" width="140" height="26" as="geometry" />
        </mxCell>
        <mxCell id="WXTV3Mn7f3rtUq6KaUBK-29" value="" style="line;strokeWidth=1;fillColor=none;align=left;verticalAlign=middle;spacingTop=-1;spacingLeft=3;spacingRight=3;rotatable=0;labelPosition=right;points=[];portConstraint=eastwest;strokeColor=inherit;" vertex="1" parent="WXTV3Mn7f3rtUq6KaUBK-27">
          <mxGeometry y="52" width="140" height="8" as="geometry" />
        </mxCell>
        <mxCell id="WXTV3Mn7f3rtUq6KaUBK-30" value="+ getInstance() : Modele" style="text;strokeColor=none;fillColor=none;align=left;verticalAlign=top;spacingLeft=4;spacingRight=4;overflow=hidden;rotatable=0;points=[[0,0.5],[1,0.5]];portConstraint=eastwest;whiteSpace=wrap;html=1;" vertex="1" parent="WXTV3Mn7f3rtUq6KaUBK-27">
          <mxGeometry y="60" width="140" height="26" as="geometry" />
        </mxCell>
        <mxCell id="WXTV3Mn7f3rtUq6KaUBK-31" value="" style="endArrow=diamondThin;endFill=1;endSize=24;html=1;rounded=0;exitX=0.5;exitY=0;exitDx=0;exitDy=0;edgeStyle=orthogonalEdgeStyle;entryX=0.75;entryY=0;entryDx=0;entryDy=0;" edge="1" parent="1" source="WXTV3Mn7f3rtUq6KaUBK-27" target="WXTV3Mn7f3rtUq6KaUBK-27">
          <mxGeometry width="160" relative="1" as="geometry">
            <mxPoint x="630" y="114" as="sourcePoint" />
            <mxPoint x="630" y="80" as="targetPoint" />
            <Array as="points">
              <mxPoint x="620" y="114" />
              <mxPoint x="655" y="114" />
            </Array>
          </mxGeometry>
        </mxCell>
        <mxCell id="WXTV3Mn7f3rtUq6KaUBK-32" value="1" style="edgeLabel;html=1;align=center;verticalAlign=middle;resizable=0;points=[];" vertex="1" connectable="0" parent="WXTV3Mn7f3rtUq6KaUBK-31">
          <mxGeometry x="-0.617" y="-3" relative="1" as="geometry">
            <mxPoint x="-12" y="10" as="offset" />
          </mxGeometry>
        </mxCell>
        <mxCell id="WXTV3Mn7f3rtUq6KaUBK-33" value="1" style="edgeLabel;html=1;align=center;verticalAlign=middle;resizable=0;points=[];" vertex="1" connectable="0" parent="WXTV3Mn7f3rtUq6KaUBK-31">
          <mxGeometry x="0.5638" y="2" relative="1" as="geometry">
            <mxPoint x="13" y="14" as="offset" />
          </mxGeometry>
        </mxCell>
        <mxCell id="WXTV3Mn7f3rtUq6KaUBK-34" value="" style="endArrow=open;endFill=1;endSize=12;html=1;rounded=0;entryX=0;entryY=0.5;entryDx=0;entryDy=0;exitX=1;exitY=0.5;exitDx=0;exitDy=0;" edge="1" parent="1" source="WXTV3Mn7f3rtUq6KaUBK-10" target="WXTV3Mn7f3rtUq6KaUBK-30">
          <mxGeometry width="160" relative="1" as="geometry">
            <mxPoint x="440" y="300" as="sourcePoint" />
            <mxPoint x="600" y="300" as="targetPoint" />
          </mxGeometry>
        </mxCell>
        <mxCell id="WXTV3Mn7f3rtUq6KaUBK-35" value="" style="endArrow=open;endFill=1;endSize=12;html=1;rounded=0;entryX=1;entryY=0.5;entryDx=0;entryDy=0;exitX=0;exitY=0.5;exitDx=0;exitDy=0;" edge="1" parent="1" source="WXTV3Mn7f3rtUq6KaUBK-28" target="WXTV3Mn7f3rtUq6KaUBK-6">
          <mxGeometry width="160" relative="1" as="geometry">
            <mxPoint x="440" y="320" as="sourcePoint" />
            <mxPoint x="600" y="320" as="targetPoint" />
          </mxGeometry>
        </mxCell>
      </root>
    </mxGraphModel>
  </diagram>
</mxfile>
